<?xml version="1.0" encoding="iso-8859-1"?>
<!-- Generator: Adobe Illustrator 19.0.0, SVG Export Plug-In . SVG Version: 6.00 Build 0)  -->
<svg version="1.1" id="Layer_1" xmlns="http://www.w3.org/2000/svg" xmlns:xlink="http://www.w3.org/1999/xlink" x="0px" y="0px"
	 viewBox="0 0 502 502" style="enable-background:new 0 0 502 502;" xml:space="preserve">
<g>
	<g>
		<circle style="fill:#C75924;" cx="251" cy="251" r="241"/>
		<path d="M251,502c-67.045,0-130.076-26.108-177.483-73.516C26.108,381.076,0,318.044,0,251S26.108,120.924,73.517,73.516
			C120.924,26.108,183.955,0,251,0s130.076,26.108,177.483,73.516C475.892,120.924,502,183.956,502,251
			s-26.108,130.076-73.517,177.484C381.076,475.892,318.045,502,251,502z M251,20C123.626,20,20,123.626,20,251s103.626,231,231,231
			s231-103.626,231-231S378.374,20,251,20z"/>
	</g>
	<g>
		<circle style="fill:#535C61;" cx="289.2" cy="186.2" r="33.2"/>
		<path d="M289.2,229.4c-23.82,0-43.2-19.379-43.2-43.2s19.38-43.2,43.2-43.2s43.2,19.379,43.2,43.2
			C332.4,210.021,313.021,229.4,289.2,229.4z M289.2,163c-12.793,0-23.2,10.408-23.2,23.2s10.407,23.2,23.2,23.2
			s23.2-10.407,23.2-23.2S301.993,163,289.2,163z"/>
	</g>
	<g>
		<circle style="fill:#535C61;" cx="132.2" cy="244.2" r="33.2"/>
		<path d="M132.2,287.4c-23.82,0-43.2-19.379-43.2-43.2s19.38-43.2,43.2-43.2s43.2,19.379,43.2,43.2S156.021,287.4,132.2,287.4z
			 M132.2,221c-12.793,0-23.2,10.408-23.2,23.2c0,12.792,10.407,23.2,23.2,23.2s23.2-10.407,23.2-23.2S144.993,221,132.2,221z"/>
	</g>
	<g>
		<circle style="fill:#535C61;" cx="199.5" cy="98.5" r="33.2"/>
		<path d="M199.5,141.7c-23.82,0-43.2-19.379-43.2-43.2s19.38-43.2,43.2-43.2s43.2,19.379,43.2,43.2S223.32,141.7,199.5,141.7z
			 M199.5,75.3c-12.793,0-23.2,10.408-23.2,23.2s10.407,23.2,23.2,23.2s23.2-10.408,23.2-23.2S212.293,75.3,199.5,75.3z"/>
	</g>
	<g>
		<path d="M251,463c-34.761,0-69.239-8.599-99.709-24.867c-4.872-2.601-6.713-8.659-4.111-13.531
			c2.6-4.872,8.656-6.713,13.531-4.111C188.292,435.216,219.514,443,251,443c5.522,0,10,4.477,10,10S256.522,463,251,463z"/>
	</g>
	<g>
		<path d="M335.006,444.763c-3.791,0-7.417-2.167-9.098-5.839c-2.3-5.021-0.093-10.956,4.929-13.255
			C398.974,394.471,443,325.91,443,251c0-24.636-4.598-48.62-13.665-71.284c-2.052-5.128,0.442-10.948,5.569-13
			c5.126-2.049,10.947,0.442,12.999,5.57C457.921,197.324,463,223.807,463,251c0,41.399-11.938,81.511-34.523,116
			c-22.004,33.6-52.888,60.175-89.313,76.853C337.814,444.47,336.398,444.763,335.006,444.763z"/>
	</g>
</g>
<g>
</g>
<g>
</g>
<g>
</g>
<g>
</g>
<g>
</g>
<g>
</g>
<g>
</g>
<g>
</g>
<g>
</g>
<g>
</g>
<g>
</g>
<g>
</g>
<g>
</g>
<g>
</g>
<g>
</g>
</svg>
