<?xml version="1.0" encoding="iso-8859-1"?>
<!-- Generator: Adobe Illustrator 19.0.0, SVG Export Plug-In . SVG Version: 6.00 Build 0)  -->
<svg version="1.1" id="Layer_1" xmlns="http://www.w3.org/2000/svg" xmlns:xlink="http://www.w3.org/1999/xlink" x="0px" y="0px"
	 viewBox="0 0 502 502" style="enable-background:new 0 0 502 502;" xml:space="preserve">
<g>
	<path style="fill:#535C61;" d="M251,324.599c-133.101,0-241-56.716-241-126.679v106.16c0,69.963,107.899,126.68,241,126.68
		s241-56.716,241-126.68V197.92C492,267.883,384.101,324.599,251,324.599z"/>
	<ellipse style="fill:#535C61;" cx="251" cy="197.92" rx="241" ry="126.679"/>
	<g>
		<path d="M426.065,99.492C379.138,74.825,316.965,61.24,251,61.24S122.862,74.825,75.935,99.492C26.967,125.231,0,160.188,0,197.92
			v106.16c0,37.732,26.967,72.688,75.935,98.428c46.927,24.667,109.1,38.252,175.065,38.252s128.138-13.585,175.065-38.252
			C475.033,376.769,502,341.813,502,304.08V197.92C502,160.188,475.033,125.231,426.065,99.492z M85.24,117.195
			C129.35,94.01,188.218,81.24,251,81.24s121.65,12.77,165.76,35.955C458.831,139.31,482,167.979,482,197.92
			s-23.169,58.61-65.24,80.725C372.65,301.83,313.782,314.6,251,314.6s-121.65-12.77-165.76-35.955
			C43.169,256.53,20,227.861,20,197.92S43.169,139.31,85.24,117.195z M482,252.141v51.939c0,29.941-23.169,58.61-65.24,80.725
			C372.65,407.99,313.782,420.76,251,420.76s-121.65-12.77-165.76-35.955C43.169,362.69,20,334.021,20,304.08v-51.939v-0.014
			c12.855,16.477,31.695,31.48,55.935,44.221C122.862,321.015,185.035,334.6,251,334.6s128.138-13.585,175.065-38.252
			c24.24-12.742,43.079-27.744,55.935-44.221V252.141z"/>
		<path d="M113.007,146.566c1.424,0,2.872-0.306,4.247-0.951c10.84-5.095,23.097-9.561,36.429-13.272
			c5.32-1.481,8.433-6.996,6.951-12.316c-1.481-5.319-6.993-8.433-12.316-6.951c-14.407,4.012-27.721,8.87-39.571,14.438
			c-4.998,2.35-7.146,8.306-4.797,13.304C105.652,144.441,109.251,146.566,113.007,146.566z"/>
		<path d="M110.719,269.24c37.637,17.204,87.457,26.68,140.281,26.68c5.523,0,10-4.478,10-10s-4.477-10-10-10
			c-109.172,0-182.508-40.331-182.508-78c0-7.699,2.909-15.415,8.647-22.933c3.351-4.39,2.508-10.666-1.882-14.017
			c-4.39-3.35-10.665-2.509-14.017,1.882c-8.459,11.083-12.749,22.882-12.749,35.067C48.492,225.568,70.591,250.896,110.719,269.24z
			"/>
	</g>
</g>
<g>
</g>
<g>
</g>
<g>
</g>
<g>
</g>
<g>
</g>
<g>
</g>
<g>
</g>
<g>
</g>
<g>
</g>
<g>
</g>
<g>
</g>
<g>
</g>
<g>
</g>
<g>
</g>
<g>
</g>
</svg>
