<?xml version="1.0" encoding="iso-8859-1"?>
<!-- Generator: Adobe Illustrator 19.0.0, SVG Export Plug-In . SVG Version: 6.00 Build 0)  -->
<svg version="1.1" id="Layer_1" xmlns="http://www.w3.org/2000/svg" xmlns:xlink="http://www.w3.org/1999/xlink" x="0px" y="0px"
	 viewBox="0 0 502 502" style="enable-background:new 0 0 502 502;" xml:space="preserve">
<g>
	<g>
		<circle style="fill:#535C61;" cx="251" cy="251" r="241"/>
		<path d="M251,502c-67.045,0-130.076-26.108-177.483-73.517C26.108,381.076,0,318.045,0,251S26.108,120.924,73.517,73.517
			C120.924,26.108,183.955,0,251,0s130.076,26.108,177.483,73.517C475.892,120.924,502,183.955,502,251
			s-26.108,130.076-73.517,177.483C381.076,475.892,318.045,502,251,502z M251,20C123.626,20,20,123.626,20,251s103.626,231,231,231
			s231-103.626,231-231S378.374,20,251,20z"/>
	</g>
	<g>
		<circle style="fill:#E4DCD3;" cx="251" cy="251" r="107"/>
		<path d="M251,368c-64.514,0-117-52.486-117-117s52.486-117,117-117s117,52.486,117,117S315.514,368,251,368z M251,154
			c-53.486,0-97,43.514-97,97s43.514,97,97,97s97-43.514,97-97S304.486,154,251,154z"/>
	</g>
	<g>
		<g>
			<path d="M276.844,226.81c3.788,2.207,7.374,4.962,10.751,8.27c10.062,10.131,15.093,22.329,15.093,36.595
				s-5.049,26.448-15.146,36.542c-10.096,10.098-22.277,15.146-36.542,15.146s-26.448-5.047-36.542-15.146
				c-10.098-10.094-15.146-22.277-15.146-36.542s5.065-26.464,15.196-36.595c3.308-3.308,6.823-6.063,10.544-8.27
				c-3.377-5.029-5.065-10.751-5.065-17.16c0-8.615,3.014-15.936,9.044-21.968c6.03-6.028,13.352-9.044,21.968-9.044
				c8.544,0,15.851,3.016,21.916,9.044c6.063,6.032,9.097,13.354,9.097,21.968C282.013,216.059,280.29,221.781,276.844,226.81z
				 M251,240.662c-8.617,0-15.938,3.016-21.968,9.044c-6.03,6.032-9.044,13.354-9.044,21.968c0,8.546,3.014,15.853,9.044,21.916
				c6.03,6.065,13.352,9.097,21.968,9.097c8.544,0,15.851-3.032,21.916-9.097c6.063-6.063,9.097-13.37,9.097-21.916
				c0-8.615-3.034-15.936-9.097-21.968C266.851,243.679,259.544,240.662,251,240.662z M251,199.312
				c-2.828,0-5.256,0.999-7.289,2.998c-2.033,2.001-3.049,4.445-3.049,7.34c0,2.828,1.016,5.256,3.049,7.289
				s4.461,3.049,7.289,3.049c2.895,0,5.339-1.016,7.34-3.049c1.999-2.033,2.998-4.461,2.998-7.289c0-2.895-0.999-5.339-2.998-7.34
				C256.339,200.311,253.895,199.312,251,199.312z"/>
		</g>
	</g>
	<g>
		<path d="M51,261c-5.522,0-10-4.478-10-10c0-115.794,94.206-210,210-210c5.522,0,10,4.478,10,10s-4.478,10-10,10
			C146.233,61,61,146.233,61,251C61,256.522,56.522,261,51,261z"/>
	</g>
	<g>
		<path d="M392.845,120.003c-2.569,0-5.138-0.983-7.092-2.95c-15.222-15.312-32.755-27.824-52.11-37.188
			c-4.972-2.405-7.052-8.386-4.646-13.357c2.406-4.974,8.389-7.051,13.357-4.646c21.393,10.351,40.766,24.176,57.583,41.093
			c3.894,3.916,3.875,10.248-0.042,14.142C397.944,119.034,395.395,120.003,392.845,120.003z"/>
	</g>
</g>
<g>
</g>
<g>
</g>
<g>
</g>
<g>
</g>
<g>
</g>
<g>
</g>
<g>
</g>
<g>
</g>
<g>
</g>
<g>
</g>
<g>
</g>
<g>
</g>
<g>
</g>
<g>
</g>
<g>
</g>
</svg>
