<?xml version="1.0" encoding="iso-8859-1"?>
<!-- Generator: Adobe Illustrator 19.0.0, SVG Export Plug-In . SVG Version: 6.00 Build 0)  -->
<svg version="1.1" id="Layer_1" xmlns="http://www.w3.org/2000/svg" xmlns:xlink="http://www.w3.org/1999/xlink" x="0px" y="0px"
	 viewBox="0 0 512 512" style="enable-background:new 0 0 512 512;" xml:space="preserve">
<path style="fill:#314E55;" d="M492.141,26.409c-1.049-3.081-3.47-5.502-6.551-6.551c-133.43-45.377-278.222-11.695-377.826,87.904
	C8.159,207.366-25.523,352.143,19.859,485.588c1.049,3.081,3.47,5.502,6.551,6.551c39.266,13.353,79.49,19.858,119.278,19.858
	c95.433,0,188.25-37.465,258.548-107.762C503.841,304.631,537.523,159.855,492.141,26.409z"/>
<g>
	<path style="fill:#E4AD40;" d="M473.925,38.074c12.508,38.603,18.015,78.141,16.935,117.09
		c-24.487-18.256-48.601-39.028-71.801-62.224c-23.204-23.208-43.981-47.326-62.227-71.798
		C395.78,20.06,435.32,25.567,473.925,38.074z"/>
	<path style="fill:#E4AD40;" d="M38.075,473.924c-13.459-41.54-18.667-84.144-16.423-125.947
		c26.468,19.229,52.538,41.477,77.554,66.49c24.474,24.479,46.298,49.976,65.249,75.858
		C122.514,492.628,79.76,487.435,38.075,473.924z"/>
	<path style="fill:#E4AD40;" d="M389.414,389.413c-55.801,55.8-126.67,89.48-201.375,98.796c-0.317-1.114-0.722-2.221-1.431-3.219
		c-20.708-29.179-45.127-57.897-72.58-85.345c-27.766-27.771-56.816-52.425-86.343-73.292c-1.234-0.871-2.592-1.407-3.983-1.687
		c9.186-74.963,42.905-146.102,98.884-202.082c57.784-57.781,131.689-92.011,209.308-99.848
		c20.65,29.052,44.98,57.657,72.344,85.026c27.353,27.359,55.96,51.652,85.033,72.319
		C481.436,257.711,447.201,331.627,389.414,389.413z"/>
</g>
<path style="fill:#314E55;" d="M288.306,108.499c-0.732-5.738-5.927-9.77-11.721-9.079c-0.534,0.068-2.369,0.328-5.18,0.868
	l-8.046-18.776c-2.277-5.318-8.435-7.78-13.763-5.502c-5.318,2.277-7.785,8.44-5.502,13.763l6.802,15.871
	c-4.796,1.543-10.098,3.455-15.799,5.799l-6.526-15.226c-2.272-5.318-8.45-7.79-13.763-5.502c-5.318,2.277-7.785,8.44-5.502,13.763
	l6.796,15.855c-6.354,3.341-12.941,7.187-19.661,11.64l-9.107-11.265c-3.639-4.494-10.252-5.19-14.74-1.561
	c-4.504,3.639-5.205,10.241-1.566,14.745l8.488,10.5c-6.994,5.632-13.985,11.964-20.856,19.065l-12.035-9.921
	c-4.458-3.68-11.07-3.045-14.756,1.418c-3.685,4.468-3.045,11.076,1.418,14.756l11.486,9.469
	c-5.828,7.214-11.493,15.014-16.87,23.572l-12.12-6.605c-5.087-2.794-11.459-0.901-14.218,4.187
	c-2.774,5.082-0.896,11.449,4.187,14.218l11.773,6.415c-3.632,6.961-7.072,14.328-10.305,22.098l-11.776-5.973
	c-5.149-2.62-11.47-0.553-14.085,4.606c-2.62,5.159-0.558,11.47,4.606,14.085l13.879,7.04c-1.458,5.308,1.354,10.897,6.634,12.685
	c1.116,0.379,2.252,0.563,3.368,0.563c3.2,0,6.224-1.503,8.206-4.012l7.425,3.767c1.515,0.773,3.138,1.136,4.729,1.136
	c3.823,0,7.508-2.098,9.356-5.743c2.62-5.159,0.558-11.47-4.606-14.085l-8.94-4.535c3.054-7.457,6.315-14.701,9.909-21.604
	l16.049,8.747c1.592,0.87,3.312,1.28,5.006,1.28c3.716,0,7.314-1.976,9.213-5.466c2.774-5.082,0.896-11.449-4.187-14.218
	l-15.619-8.513c4.542-7.115,9.506-13.782,14.704-20.195l11.182,9.218c1.955,1.612,4.315,2.395,6.664,2.395
	c3.02,0,6.019-1.3,8.092-3.813c3.685-4.468,3.045-11.076-1.418-14.756l-10.5-8.655c5.63-5.689,11.591-11.009,17.837-16.011
	l9.348,11.563c2.073,2.559,5.103,3.89,8.158,3.89c2.313,0,4.647-0.763,6.587-2.329c4.499-3.639,5.2-10.241,1.561-14.745
	l-8.628-10.674c2.118-1.372,4.123-2.874,6.3-4.179c2.782-1.668,5.512-3.186,8.213-4.641l7.059,16.469
	c1.699,3.972,5.569,6.357,9.637,6.357c1.377,0,2.779-0.276,4.125-0.855c5.318-2.277,7.785-8.44,5.502-13.763l-7.373-17.202
	c5.801-2.395,11.131-4.294,15.81-5.767l7.082,16.525c1.699,3.972,5.569,6.357,9.637,6.357c1.377,0,2.779-0.276,4.125-0.855
	c5.318-2.277,7.785-8.44,5.502-13.763l-5.736-13.386C285.238,118.97,289.004,114.014,288.306,108.499z"/>
<g>
</g>
<g>
</g>
<g>
</g>
<g>
</g>
<g>
</g>
<g>
</g>
<g>
</g>
<g>
</g>
<g>
</g>
<g>
</g>
<g>
</g>
<g>
</g>
<g>
</g>
<g>
</g>
<g>
</g>
</svg>
